<?xml version="1.0" encoding="UTF-8"?>
<svg xmlns="http://www.w3.org/2000/svg" viewBox="0 0 1018.4 1018.07">
  <defs>
    <style>
      .cls-1 {
        fill: #c9df00;
        stroke: #9f8600;
      }

      .cls-1, .cls-2, .cls-3, .cls-4 {
        stroke-miterlimit: 10;
      }

      .cls-1, .cls-3, .cls-4 {
        stroke-width: 10px;
      }

      .cls-2 {
        fill: #00435f;
        stroke: #00304a;
        stroke-width: 40px;
      }

      .cls-3 {
        fill: #68006a;
        stroke: #4a1000;
      }

      .cls-4 {
        fill: #666;
        stroke: #000;
      }
    </style>
  </defs>
  <g id="chop">
    <polygon class="cls-1" points="78.97 998.07 48.03 998.07 35 48.07 92 48.07 78.97 998.07"/>
    <polygon class="cls-1" points="180.29 997.78 149.35 997.78 136.32 47.78 193.32 47.78 180.29 997.78"/>
  </g>
  <g id="cloud">
    <path class="cls-4" d="m968,649.76c0,122.78-157.95,222.32-352.81,222.32-66.15,0-128.03-11.49-180.95-31.45-7.94,1.36-15.94,2.6-24.04,3.67-197.97,26.16-371.7-51.31-387.96-173.02-16.2-120.96,129.2-240.13,325.4-267.2,48.05-103.79,177.06-163.96,312.63-138.13,139.26,26.48,238.31,134.69,239.46,252.37,42.93,36.8,68.28,82.24,68.28,131.44Z"/>
  </g>
  <g id="bowl">
    <path class="cls-2" d="m994,632.07c0,202.14-218.04,366-487,366S20,834.21,20,632.07h974Z"/>
  </g>
  <g id="hat">
    <path class="cls-3" d="m834.34,336.7l143.83,109.07-741.05-102.52,103.35-43.01c36.78-50.19,114.52-139.14,243.39-209.29C781.11-16.41,999.11,7.2,999.11,7.2c0,0-197.33,85.84-214.38,178.05-8.73,47.24,19.75,105.67,49.61,151.44Z"/>
  </g>
</svg>