<?xml version="1.0" encoding="UTF-8"?>
<svg xmlns="http://www.w3.org/2000/svg" viewBox="0 0 1024 1024">
  <defs>
    <style>
      .cls-1 {
        fill: #ffbfe1;
        stroke: #ff155d;
        stroke-width: 20px;
      }

      .cls-1, .cls-2, .cls-3, .cls-4 {
        stroke-miterlimit: 10;
      }

      .cls-2 {
        fill: #c9df00;
        stroke: #9f8600;
      }

      .cls-2, .cls-3 {
        stroke-width: 10px;
      }

      .cls-3 {
        fill: #68006a;
        stroke: #4a1000;
      }

      .cls-4 {
        fill: #007ddf;
        stroke: #2aa8ff;
        stroke-width: 40px;
      }
    </style>
  </defs>
  <g id="chop">
    <polygon class="cls-2" points="83.97 1002 53.03 1002 40 52 97 52 83.97 1002"/>
    <polygon class="cls-2" points="185.29 1001.7 154.35 1001.7 141.32 51.7 198.32 51.7 185.29 1001.7"/>
  </g>
  <g id="cloud">
    <path class="cls-1" d="m973,653.68c0,122.78-157.95,222.32-352.81,222.32-66.15,0-128.03-11.49-180.95-31.45-7.94,1.36-15.94,2.6-24.04,3.67-197.97,26.16-371.7-51.31-387.96-173.02-16.2-120.96,129.2-240.13,325.4-267.2,48.05-103.79,177.06-163.96,312.63-138.13,139.26,26.48,238.31,134.69,239.46,252.37,42.93,36.8,68.28,82.24,68.28,131.44Z"/>
  </g>
  <g id="bowl">
    <path class="cls-4" d="m999,636c0,202.14-218.04,366-487,366S25,838.14,25,636h974Z"/>
    <line class="cls-4" x1="69" y1="787" x2="956" y2="787"/>
  </g>
  <g id="hat">
    <path class="cls-3" d="m839.34,340.62l143.83,109.07-741.05-102.52,103.35-43.01c36.78-50.19,114.52-139.14,243.39-209.29C786.11-12.48,1004.11,11.13,1004.11,11.13c0,0-197.33,85.84-214.38,178.05-8.73,47.24,19.75,105.67,49.61,151.44Z"/>
  </g>
</svg>